# AST/ASF file generated using VICON BodyLanguage
# -----------------------------------------------
:version 1.10
:name VICON
:units
  mass 1.0
  length 0.45
  angle deg
:documentation
   .ast/.asf automatically generated from VICON data using
   VICON BodyBuilder and BodyLanguage model FoxedUp or BRILLIANT.MOD
:root
   order TX TY TZ RX RY RZ
   axis XYZ
   position 0 0 0  
   orientation 0 0 0 
:bonedata
  begin
     id 1 
     name lhipjoint
     direction 0.598477 -0.721498 0.348234 
     length 2.38516 
     axis 0 0 0  XYZ
  end
  begin
     id 2 
     name lfemur
     direction 0.34202 -0.939693 0  
     length 6.81097  
     axis 0 0 20  XYZ
    dof rx ry rz
    limits (-160.0 20.0)
           (-70.0 70.0)
           (-60.0 70.0)
  end
  begin
     id 3 
     name ltibia
     direction 0.34202 -0.939693 0   
     length 7.43697   
     axis 0 0 20   XYZ
    dof rx
    limits (-10.0 170.0)
  end
  begin
     id 4 
     name lfoot
     direction 0.0644912 -0.177188 0.982062   
     length 2.0384   
     axis -90 7.62852e-016 20   XYZ
    dof rx rz
    limits (-45.0 90.0)
           (-70.0 20.0)
  end
  begin
     id 5 
     name ltoes
     direction 1.53517e-011 -4.21905e-011 1   
     length 1.02854   
     axis -90 7.62852e-016 20   XYZ
    dof rx
    limits (-90.0 20.0)
  end
  begin
     id 6 
     name rhipjoint
     direction -0.591517 -0.726138 0.350474   
     length 2.36992  
     axis 0 0 0  XYZ 
  end
  begin
     id 7 
     name rfemur
     direction -0.34202 -0.939693 0   
     length 6.93503   
     axis 0 0 -20   XYZ
    dof rx ry rz
    limits (-160.0 20.0)
           (-70.0 70.0)
           (-70.0 60.0)
  end
  begin
     id 8 
     name rtibia
     direction -0.34202 -0.939693 0   
     length 7.45107   
     axis 0 0 -20   XYZ
    dof rx
    limits (-10.0 170.0)
 end
 begin
     id 9 
     name rfoot
     direction -0.0677555 -0.186157 0.980181   
     length 1.90244  
     axis -90 -7.62852e-016 -20   XYZ
    dof rx rz
    limits (-45.0 90.0)
           (-20.0 70.0)
  end
  begin
     id 10 
     name rtoes
     direction -1.53409e-011 -4.21428e-011 1   
     length 0.961454   
     axis -90 -7.62852e-016 -20   XYZ
    dof rx
    limits (-90.0 20.0)
  end
  begin
     id 11 
     name lowerback
     direction -0.0289484 0.992437 0.119291   
     length 1.96261   
     axis 0 0 0   XYZ
    dof rx ry rz
    limits (-20.0 45.0)
           (-30.0 30.0)
           (-30.0 30.0)
  end
  begin
     id 12 
     name upperback
     direction 0.0109352 0.999834 0.0146028   
     length 1.96894   
     axis 0 0 0   XYZ
    dof rx ry rz
    limits (-20.0 45.0)
           (-30.0 30.0)
           (-30.0 30.0)
  end
  begin
     id 13 
     name thorax
     direction 0.0232227 0.998895 -0.0408582   
     length 2.00029   
     axis 0 0 0   XYZ
    dof rx ry rz
    limits (-20.0 45.0)
           (-30.0 30.0)
           (-30.0 30.0)
  end
  begin
     id 14 
     name lowerneck
     direction -0.00291659 0.999583 0.0287188   
     length 1.72722   
     axis 0 0 0   XYZ
    dof rx ry rz
    limits (-20.0 45.0)
           (-30.0 30.0)
           (-30.0 30.0)
  end
  begin
     id 15 
     name upperneck
     direction 0.0277639 0.998467 -0.0478817   
     length 1.68525   
     axis 0 0 0   XYZ
    dof rx ry rz
    limits (-20.0 45.0)
           (-30.0 30.0)
           (-30.0 30.0)
  end
  begin
     id 16
     name head
     direction 0.00895921 0.999741 -0.020943  
     length 1.78934  
     axis 0 0 0   XYZ
    dof rx ry rz
    limits (-20.0 45.0)
           (-30.0 30.0)
           (-30.0 30.0)
  end
  begin
     id 17 
     name lclavicle
     direction 0.907972 0.393865 -0.143029  
     length 3.37543  
     axis 0 0 0   XYZ
    dof ry rz
    limits (-20.0 10.0)
           (0.0 20.0)
  end
  begin
     id 18 
     name lhumerus
     direction 1 -4.48915e-011 -1.10425e-027   
     length 4.94762   
     axis -180 -30 -90   XYZ
    dof rx ry rz
    limits (-60.0 90.0)
           (-90.0 90.0)
           (-90.0 90.0)
  end
  begin
     id 19
     name lradius
     direction 1 1.63657e-005 -9.44877e-006   
     length 3.11144   
     axis -180 -30 -90   XYZ
    dof rx
    limits (-10.0 170.0)
  end
  begin
     id 20
     name lwrist
     direction 1 -5.04565e-007 -1.8883e-005   
     length 1.55572   
     axis 1.22104e-015 90 90   XYZ
    dof ry
    limits (-180.0 0.0)
 end
  begin
     id 21 
     name lhand
     direction 1 -4.48949e-011 -2.20333e-027   
     length 0.686387   
     axis 1.40591e-015 90 90   XYZ
    dof rx rz
    limits (-90.0 90.0)
           (-45.0 45.0)
  end
  begin
     id 22 
     name lfingers
     direction 1 -4.49191e-011 -4.40665e-027   
     length 0.553383   
     axis 2.81182e-015 90 90   XYZ
    dof rx
    limits (0.0 90.0)
  end
  begin
     id 23
     name lthumb
     direction 0.707107 -6.35116e-011 0.707107   
     length 0.79455   
     axis -90 45 2.85299e-015   XYZ
    dof rx rz
    limits (-45.0 45.0)
           (-45.0 45.0)
  end
  begin
     id 24 
     name rclavicle
     direction -0.947168 0.319303 -0.0302977   
     length 3.53547  
     axis 0 0 0   XYZ 
    dof ry rz
    limits (-10.0 20.0)
           (-20.0 0.0)
  end
  begin
     id 25 
     name rhumerus
     direction -1 -0.000401632 0.000196042  
     length 4.77566   
     axis -180 30 90   XYZ
    dof rx ry rz
    limits (-90.0 60.0)
           (-90.0 90.0)
           (-90.0 90.0)
  end
  begin
     id 26 
     name rradius
     direction -1 -4.49012e-011 -4.87197e-027   
     length 3.21433   
     axis -180 30 90   XYZ
    dof rx
    limits (-10.0 170.0)
  end
  begin
     id 27 
     name rwrist
     direction -1 -4.48899e-011 -5.86351e-027   
     length 1.60716   
     axis 3.17445e-015 -90 -90   XYZ
    dof ry
    limits (-180.0 0.0)
  end
  begin
     id 28
     name rhand
     direction -0.999958 0.00678358 -0.00613214   
     length 0.625487   
     axis 7.48284e-015 -90 -90   XYZ
    dof rx rz
    limits (-90.0 90.0)
           (-45.0 45.0)
  end
  begin
     id 29
     name rfingers
     direction -1 -4.48756e-011 -2.3454e-026   
     length 0.505648   
     axis 1.49657e-014 -90 -90   XYZ
    dof rx
    limits (0.0 90.0)
  end
  begin
     id 30
     name rthumb
     direction -0.708559 0.00587598 0.705627   
     length 0.722099   
     axis -90 -45 -2.85299e-015   XYZ
    dof rx rz
    limits (-45.0 45.0)
           (-45.0 45.0)
  end
:hierarchy
  begin
    root lhipjoint rhipjoint lowerback
    lhipjoint lfemur
    lfemur ltibia
    ltibia lfoot
    lfoot ltoes
    rhipjoint rfemur
    rfemur rtibia
    rtibia rfoot
    rfoot rtoes
    lowerback upperback
    upperback thorax
    thorax lowerneck lclavicle rclavicle
    lowerneck upperneck
    upperneck head
    lclavicle lhumerus
    lhumerus lradius
    lradius lwrist
    lwrist lhand lthumb
    lhand lfingers
    rclavicle rhumerus
    rhumerus rradius
    rradius rwrist
    rwrist rhand rthumb
    rhand rfingers
  end

#!OML:ASF C:\Documents and Settings\Administrator\Desktop\SteveTeapot.ASF
:FULLY-SPECIFIED
:DEGREES
1517
root 2.35638 16.3121 -7.86834 19.5912 -13.589 -1.1834
lowerback -13.2771 -2.20908 -6.15282
upperback -2.19932 -1.98012 -1.62948
thorax 5.26925 -1.07715 1.40098
lowerneck -2.95981 -8.42378 -5.89061
upperneck 1.37208 -11.4816 12.868
head 1.99554 -5.59932 4.41121
rclavicle -8.74653e-015 -1.74931e-014
rhumerus -73.3123 37.9259 -105.958
rradius 80.3753
rwrist -63.5061
rhand 10.6308 -53.8972
rfingers 7.12502
rthumb 35.7244 -80.281
lclavicle -8.74653e-015 -1.74931e-014
lhumerus -32.4986 22.7708 70.1304
lradius 15.7967
lwrist -38.6127
lhand 1.25848 -16.8639
lfingers 7.12502
lthumb 26.7952 11.258
rfemur -36.9766 -1.08769 17.4687
rtibia 41.6729
rfoot -26.7776 3.52715
rtoes -19.8768
lfemur -34.9446 8.60283 -27.6226
ltibia 39.3296
lfoot -31.5131 -1.89784
ltoes -30.2386
1518
root 2.35782 16.3249 -7.8494 19.8341 -13.4724 -1.05314
lowerback -13.7714 -2.50081 -6.08536
upperback -2.32141 -2.36061 -1.31268
thorax 5.44947 -1.26692 1.61243
lowerneck -2.62795 -8.3369 -6.11924
upperneck 1.36965 -11.3657 12.8937
head 1.9436 -5.55379 4.47589
rclavicle 1.51076e-014 1.74931e-014
rhumerus -73.2877 38.242 -105.452
rradius 80.3599
rwrist -62.8929
rhand 11.0042 -53.1262
rfingers 7.12502
rthumb 36.0782 -79.4234
lclavicle 1.51076e-014 1.74931e-014
lhumerus -32.4248 18.2694 71.8854
lradius 17.153
lwrist -35.5132
lhand 3.29681 -15.7625
lfingers 7.12502
lthumb 28.7441 12.045
rfemur -37.0834 -1.49922 17.5106
rtibia 41.4255
rfoot -26.7171 3.60529
rtoes -19.3746
lfemur -35.0915 9.03562 -27.923
ltibia 39.0292
lfoot -31.5063 -2.83286
ltoes -29.6747
1519
root 2.35871 16.3347 -7.83876 20.0168 -13.3684 -0.905734
lowerback -14.0848 -2.76516 -5.98598
upperback -2.52231 -2.72433 -1.07606
thorax 5.44218 -1.44201 1.72997
lowerneck -1.71766 -8.23296 -6.23595
upperneck 0.937536 -11.2111 12.9578
head 1.66213 -5.52042 4.5719
rclavicle -3.27995e-014 7.15625e-015
rhumerus -73.3037 38.3902 -105.023
rradius 80.3068
rwrist -62.3673
rhand 11.7433 -52.623
rfingers 7.12502
rthumb 36.7779 -78.7446
lclavicle -3.27995e-014 7.15625e-015
lhumerus -32.7085 14.8331 72.8674
lradius 18.1023
lwrist -33.8688
lhand 3.52916 -15.7568
lfingers 7.12502
lthumb 28.9661 12.0128
rfemur -37.1276 -1.68515 17.4658
rtibia 41.1923
rfoot -26.7166 3.27283
rtoes -19.8153
lfemur -35.1917 9.39368 -28.1984
ltibia 38.734
lfoot -31.4218 -3.68578
ltoes -29.072
1520
root 2.3573 16.3426 -7.83595 20.1694 -13.3359 -0.830742
lowerback -14.1375 -2.97961 -5.88156
upperback -2.79493 -3.04542 -0.850006
thorax 5.21268 -1.59064 1.85337
lowerneck -0.938552 -8.11127 -6.39926
upperneck 0.625768 -11.0464 13.1448
head 1.44647 -5.47313 4.70341
rclavicle 9.99887e-014 -4.77083e-015
rhumerus -73.4564 38.4001 -104.6
rradius 80.4236
rwrist -62.1273
rhand 12.4746 -52.6464
rfingers 7.12502
rthumb 37.4695 -78.588
lclavicle 9.99887e-014 -4.77083e-015
lhumerus -32.9101 11.3686 73.7586
lradius 18.6253
lwrist -31.9619
lhand 3.40408 -15.7281
lfingers 7.12502
lthumb 28.8466 12.0619
rfemur -37.12 -1.67003 17.4415
rtibia 40.9617
rfoot -26.6928 2.8506
rtoes -20.7717
lfemur -35.2571 9.64056 -28.3536
ltibia 38.4548
lfoot -31.3754 -4.13542
ltoes -28.9884
1521
root 2.35332 16.3532 -7.83814 20.2953 -13.4286 -0.742093
lowerback -14.0235 -3.11388 -5.87958
upperback -3.0256 -3.25267 -0.663869
thorax 4.9322 -1.68445 2.02064
lowerneck -0.651454 -8.09444 -6.42813
upperneck 0.518434 -11.0266 13.252
head 1.37369 -5.47565 4.75623
rclavicle 6.16232e-015 2.14687e-014
rhumerus -73.4447 38.315 -104.05
rradius 80.583
rwrist -62.0905
rhand 12.7604 -53.2794
rfingers 7.12502
rthumb 37.7396 -79.1491
lclavicle 6.16232e-015 2.14687e-014
lhumerus -32.9555 7.46988 74.8563
lradius 19.0746
lwrist -29.2169
lhand 3.05958 -15.0415
lfingers 7.12502
lthumb 28.5175 12.8042
rfemur -37.1112 -1.42976 17.3394
rtibia 40.728
rfoot -26.4925 2.72146
rtoes -20.0492
lfemur -35.3286 9.81405 -28.4981
ltibia 38.187
lfoot -31.4045 -4.19667
ltoes -29.2577
1522
root 2.34957 16.3658 -7.8364 20.4132 -13.5132 -0.717579
lowerback -13.9664 -3.2045 -5.80222
upperback -3.12722 -3.40285 -0.47377
thorax 4.81276 -1.75453 2.1547
lowerneck -0.515745 -8.14526 -6.31323
upperneck 0.302856 -11.0784 13.222
head 1.28531 -5.51185 4.73816
rclavicle -4.01545e-014 -2.38542e-015
rhumerus -73.1255 38.2786 -103.419
rradius 80.5911
rwrist -62.01
rhand 13.2294 -54.2222
rfingers 7.12502
rthumb 38.1825 -79.9716
lclavicle -4.01545e-014 -2.38542e-015
lhumerus -32.982 4.86808 75.4486
lradius 19.6566
lwrist -27.7552
lhand 2.56025 -14.5428
lfingers 7.12502
lthumb 28.0403 13.382
rfemur -37.0965 -1.29114 17.3514
rtibia 40.4812
rfoot -26.409 2.71931
rtoes -18.5027
lfemur -35.3674 10.0441 -28.5793
ltibia 37.9604
lfoot -31.4593 -4.21072
ltoes -29.8017
1523
root 2.35215 16.3799 -7.82667 20.4555 -13.4572 -0.756428
lowerback -13.9658 -3.32883 -5.4812
upperback -3.15974 -3.62421 -0.309297
thorax 4.78834 -1.85984 2.10713
lowerneck -0.345911 -8.09197 -6.38178
upperneck 0.161302 -11.0048 13.4439
head 1.22566 -5.48451 4.82924
rclavicle 2.28602e-015 -1.66979e-014
rhumerus -72.7141 38.3308 -102.921
rradius 80.4493
rwrist -61.9338
rhand 14.048 -54.7706
rfingers 7.12502
rthumb 38.9548 -80.3036
lclavicle 2.28602e-015 -1.66979e-014
lhumerus -33.0464 3.1277 75.5673
lradius 20.2401
lwrist -26.9501
lhand 1.82972 -14.5737
lfingers 7.12502
lthumb 27.3417 13.4633
rfemur -36.9497 -1.47987 17.5184
rtibia 40.2443
rfoot -26.3805 2.65602
rtoes -18.1535
lfemur -35.2663 10.3412 -28.6005
ltibia 37.749
lfoot -31.4769 -4.71422
ltoes -29.6651
1524
root 2.35141 16.388 -7.82043 20.4433 -13.4568 -1.00158
lowerback -13.7777 -3.39185 -5.04736
upperback -3.25456 -3.79813 -0.0701437
thorax 4.58916 -1.93733 2.09582
lowerneck -0.211924 -8.04603 -6.55471
upperneck 0.231893 -10.9582 13.5935
head 1.23779 -5.46374 4.90749
rclavicle -4.53229e-014 -4.37326e-014
rhumerus -72.4828 38.3428 -102.52
rradius 80.2344
rwrist -61.8828
rhand 14.89 -54.5433
rfingers 7.12502
rthumb 39.7481 -79.8449
lclavicle -4.53229e-014 -4.37326e-014
lhumerus -33.189 1.6276 75.6133
lradius 20.5464
lwrist -26.0932
lhand 0.187893 -15.1122
lfingers 7.12502
lthumb 25.7703 13.1625
rfemur -36.7265 -1.24991 17.8232
rtibia 40.0464
rfoot -26.2586 1.9672
rtoes -19.89
lfemur -35.106 10.7229 -28.3712
ltibia 37.5516
lfoot -31.4357 -5.38664
ltoes -29.0209
1525
root 2.35228 16.3961 -7.81224 20.48 -13.5735 -1.1528
lowerback -13.6644 -3.40383 -4.70513
upperback -3.41569 -3.88399 0.120501
thorax 4.35571 -1.97143 2.09995
lowerneck 0.244645 -8.05461 -6.72419
upperneck 0.0370493 -10.969 13.6942
head 1.12189 -5.49046 4.98905
rclavicle 1.37161e-014 1.43125e-014
rhumerus -72.508 38.2301 -102.261
rradius 80.0145
rwrist -61.8316
rhand 15.4667 -54.1432
rfingers 7.12502
rthumb 40.2907 -79.2809
lclavicle 1.37161e-014 1.43125e-014
lhumerus -33.3497 0.402185 75.5371
lradius 20.5534
lwrist -25.9073
lhand -2.02263 -15.5001
lfingers 7.12502
lthumb 23.6517 13.065
rfemur -36.6242 -0.85457 17.8992
rtibia 39.9387
rfoot -26.0872 1.87694
rtoes -19.4482
lfemur -34.9732 11.1272 -28.3055
ltibia 37.3168
lfoot -31.4103 -5.88494
ltoes -28.447
1526
root 2.35684 16.4061 -7.80099 20.5257 -13.6686 -1.00372
lowerback -13.798 -3.43305 -4.56044
upperback -3.48244 -3.93982 0.160881
thorax 4.35565 -1.99711 2.04633
lowerneck 0.720098 -8.07092 -6.83977
upperneck -0.359114 -10.9754 13.9292
head 0.948882 -5.52152 5.10851
rclavicle -5.24792e-014 7.15625e-015
rhumerus -72.4132 37.9402 -101.944
rradius 79.8003
rwrist -61.6111
rhand 16.0756 -53.9927
rfingers 7.12502
rthumb 40.8631 -78.9525
lclavicle -5.24792e-014 7.15625e-015
lhumerus -33.3615 -0.575934 75.2371
lradius 20.504
lwrist -26.3174
lhand -4.59656 -15.9684
lfingers 7.12502
lthumb 21.181 12.8945
rfemur -36.6303 -0.716284 17.6652
rtibia 39.9318
rfoot -25.9935 1.71366
rtoes -19.5882
lfemur -34.8692 11.6065 -28.6438
ltibia 37.0712
lfoot -31.5447 -6.0917
ltoes -29.0031
1527
root 2.35954 16.4138 -7.79522 20.4615 -13.9343 -0.628341
lowerback -13.9038 -3.43434 -4.69799
upperback -3.41192 -3.91117 0.0964272
thorax 4.48973 -1.98701 2.05291
lowerneck 0.734342 -8.15116 -6.70444
upperneck -0.593662 -11.0605 13.9728
head 0.882363 -5.57118 5.10314
rclavicle -2.10712e-014 3.18055e-015
rhumerus -71.9836 37.6502 -101.531
rradius 79.4343
rwrist -61.2706
rhand 17.0692 -53.4192
rfingers 7.12502
rthumb 41.7957 -78.0773
lclavicle -2.10712e-014 3.18055e-015
lhumerus -33.0117 -1.15524 74.7487
lradius 20.3674
lwrist -26.6966
lhand -6.85872 -16.275
lfingers 7.12502
lthumb 19.0067 12.8163
rfemur -36.6768 -0.364821 17.1342
rtibia 40.0175
rfoot -25.9046 1.12312
rtoes -20.7371
lfemur -34.7171 11.911 -29.1528
ltibia 36.7893
lfoot -31.5725 -6.32118
ltoes -29.2374
